<svg width="172" height="26" viewBox="0 0 172 26" fill="none" xmlns="http://www.w3.org/2000/svg">
<path d="M0 0L8.4625 13.3311H0V26H8.4925V13.377L16.5075 26H25L8.4925 0H0Z" fill="#0A0A0A"/>
<path d="M25.0002 6.66546C25.0002 2.98506 22.0769 0 18.4726 0H16.9761V13.3309H18.4726C22.0769 13.3309 25.0002 10.3458 25.0002 6.66546Z" fill="#79C27D"/>
<path d="M36.517 23V5.54545H43.4034C44.7216 5.54545 45.8466 5.78125 46.7784 6.25284C47.7159 6.71875 48.429 7.38068 48.9176 8.23864C49.4119 9.09091 49.6591 10.0937 49.6591 11.2472C49.6591 12.4062 49.4091 13.4034 48.9091 14.2386C48.4091 15.0682 47.6847 15.7045 46.7358 16.1477C45.7926 16.5909 44.6506 16.8125 43.3097 16.8125H38.6989V13.8466H42.7131C43.4176 13.8466 44.0028 13.75 44.4688 13.5568C44.9347 13.3636 45.2813 13.0739 45.5085 12.6875C45.7415 12.3011 45.858 11.821 45.858 11.2472C45.858 10.6676 45.7415 10.179 45.5085 9.78125C45.2813 9.38352 44.9318 9.08239 44.4602 8.87784C43.9943 8.66761 43.4063 8.5625 42.696 8.5625H40.2074V23H36.517ZM45.9432 15.0568L50.2812 23H46.2074L41.9631 15.0568H45.9432ZM57.4227 23.2557C56.0988 23.2557 54.9539 22.9744 53.988 22.4119C53.0278 21.8437 52.2863 21.054 51.7636 20.0426C51.2409 19.0256 50.9795 17.8466 50.9795 16.5057C50.9795 15.1534 51.2409 13.9716 51.7636 12.9602C52.2863 11.9432 53.0278 11.1534 53.988 10.5909C54.9539 10.0227 56.0988 9.73864 57.4227 9.73864C58.7466 9.73864 59.8886 10.0227 60.8488 10.5909C61.8147 11.1534 62.5591 11.9432 63.0818 12.9602C63.6045 13.9716 63.8659 15.1534 63.8659 16.5057C63.8659 17.8466 63.6045 19.0256 63.0818 20.0426C62.5591 21.054 61.8147 21.8437 60.8488 22.4119C59.8886 22.9744 58.7466 23.2557 57.4227 23.2557ZM57.4397 20.4432C58.042 20.4432 58.5449 20.2727 58.9483 19.9318C59.3517 19.5852 59.6557 19.1136 59.8602 18.517C60.0704 17.9205 60.1755 17.2415 60.1755 16.4801C60.1755 15.7188 60.0704 15.0398 59.8602 14.4432C59.6557 13.8466 59.3517 13.375 58.9483 13.0284C58.5449 12.6818 58.042 12.5085 57.4397 12.5085C56.8318 12.5085 56.3204 12.6818 55.9057 13.0284C55.4966 13.375 55.1869 13.8466 54.9767 14.4432C54.7721 15.0398 54.6699 15.7188 54.6699 16.4801C54.6699 17.2415 54.7721 17.9205 54.9767 18.517C55.1869 19.1136 55.4966 19.5852 55.9057 19.9318C56.3204 20.2727 56.8318 20.4432 57.4397 20.4432ZM65.7467 23V9.90909H69.2069V12.2188H69.3603C69.633 11.4517 70.0876 10.8466 70.7239 10.4034C71.3603 9.96023 72.1217 9.73864 73.008 9.73864C73.9058 9.73864 74.67 9.96307 75.3007 10.4119C75.9313 10.8551 76.3518 11.4574 76.562 12.2188H76.6984C76.9654 11.4688 77.4484 10.8693 78.1472 10.4205C78.8518 9.96591 79.6842 9.73864 80.6444 9.73864C81.866 9.73864 82.8575 10.1278 83.6188 10.9062C84.3859 11.679 84.7694 12.7756 84.7694 14.196V23H81.1472V14.9119C81.1472 14.1847 80.9541 13.6392 80.5677 13.2756C80.1813 12.9119 79.6984 12.7301 79.1188 12.7301C78.4597 12.7301 77.9455 12.9403 77.5762 13.3608C77.2069 13.7756 77.0222 14.3239 77.0222 15.0057V23H73.5024V14.8352C73.5024 14.1932 73.3177 13.6818 72.9484 13.3011C72.5847 12.9205 72.1046 12.7301 71.508 12.7301C71.1046 12.7301 70.741 12.8324 70.4171 13.0369C70.0989 13.2358 69.8461 13.517 69.6586 13.8807C69.4711 14.2386 69.3774 14.6591 69.3774 15.142V23H65.7467ZM101.769 10.5653C101.701 9.87784 101.408 9.34375 100.891 8.96307C100.374 8.58239 99.6723 8.39204 98.786 8.39204C98.1837 8.39204 97.6752 8.47727 97.2604 8.64773C96.8456 8.8125 96.5274 9.04261 96.3059 9.33807C96.0899 9.63352 95.982 9.96875 95.982 10.3438C95.9706 10.6562 96.036 10.929 96.178 11.1619C96.3257 11.3949 96.5274 11.5966 96.7831 11.767C97.0388 11.9318 97.3343 12.0767 97.6695 12.2017C98.0047 12.321 98.3627 12.4233 98.7434 12.5085L100.312 12.8835C101.073 13.054 101.772 13.2812 102.408 13.5653C103.044 13.8494 103.596 14.1989 104.062 14.6136C104.527 15.0284 104.888 15.517 105.144 16.0795C105.405 16.642 105.539 17.2869 105.544 18.0142C105.539 19.0824 105.266 20.0085 104.726 20.7926C104.192 21.571 103.419 22.1761 102.408 22.608C101.402 23.0341 100.189 23.2472 98.7689 23.2472C97.3598 23.2472 96.1326 23.0312 95.0871 22.5994C94.0473 22.1676 93.2348 21.5284 92.6496 20.6818C92.0701 19.8295 91.7661 18.7756 91.7377 17.5199H95.3087C95.3485 18.1051 95.5161 18.5937 95.8115 18.9858C96.1127 19.3722 96.5132 19.6648 97.0132 19.8636C97.5189 20.0568 98.0899 20.1534 98.7263 20.1534C99.3513 20.1534 99.8939 20.0625 100.354 19.8807C100.82 19.6989 101.181 19.446 101.437 19.1222C101.692 18.7983 101.82 18.4261 101.82 18.0057C101.82 17.6136 101.704 17.2841 101.471 17.017C101.243 16.75 100.908 16.5227 100.465 16.3352C100.027 16.1477 99.4905 15.9773 98.8541 15.8239L96.9536 15.3466C95.482 14.9886 94.3201 14.429 93.4678 13.6676C92.6155 12.9062 92.1922 11.8807 92.1979 10.5909C92.1922 9.53409 92.4735 8.6108 93.0416 7.82102C93.6155 7.03125 94.4024 6.41477 95.4024 5.97159C96.4024 5.52841 97.5388 5.30682 98.8115 5.30682C100.107 5.30682 101.238 5.52841 102.204 5.97159C103.175 6.41477 103.931 7.03125 104.471 7.82102C105.01 8.6108 105.289 9.52557 105.306 10.5653H101.769ZM114.442 9.90909V12.6364H106.558V9.90909H114.442ZM108.348 6.77273H111.979V18.9773C111.979 19.3125 112.03 19.5739 112.132 19.7614C112.234 19.9432 112.376 20.071 112.558 20.1449C112.746 20.2187 112.962 20.2557 113.206 20.2557C113.376 20.2557 113.547 20.2415 113.717 20.2131C113.888 20.179 114.018 20.1534 114.109 20.1364L114.68 22.8381C114.498 22.8949 114.243 22.9602 113.913 23.0341C113.584 23.1136 113.183 23.1619 112.712 23.179C111.837 23.2131 111.069 23.0966 110.41 22.8295C109.757 22.5625 109.248 22.1477 108.885 21.5852C108.521 21.0227 108.342 20.3125 108.348 19.4545V6.77273ZM124.722 17.4261V9.90909H128.352V23H124.866V20.6222H124.73C124.435 21.3892 123.943 22.0057 123.256 22.4716C122.574 22.9375 121.741 23.1705 120.758 23.1705C119.883 23.1705 119.114 22.9716 118.449 22.5739C117.784 22.1761 117.264 21.6108 116.889 20.8778C116.52 20.1449 116.332 19.267 116.327 18.2443V9.90909H119.957V17.5966C119.963 18.3693 120.17 18.9801 120.58 19.429C120.989 19.8778 121.537 20.1023 122.224 20.1023C122.662 20.1023 123.071 20.0028 123.452 19.804C123.832 19.5994 124.139 19.2983 124.372 18.9006C124.611 18.5028 124.727 18.0114 124.722 17.4261ZM135.6 23.2131C134.606 23.2131 133.705 22.9574 132.899 22.446C132.097 21.929 131.461 21.1705 130.989 20.1705C130.524 19.1648 130.291 17.9318 130.291 16.4716C130.291 14.9716 130.532 13.7244 131.015 12.7301C131.498 11.7301 132.14 10.983 132.941 10.4886C133.748 9.98864 134.631 9.73864 135.592 9.73864C136.325 9.73864 136.935 9.86364 137.424 10.1136C137.918 10.358 138.316 10.6648 138.617 11.0341C138.924 11.3977 139.157 11.7557 139.316 12.108H139.427V5.54545H143.049V23H139.47V20.9034H139.316C139.146 21.267 138.904 21.6278 138.592 21.9858C138.285 22.3381 137.884 22.6307 137.39 22.8636C136.901 23.0966 136.305 23.2131 135.6 23.2131ZM136.751 20.3239C137.336 20.3239 137.83 20.1648 138.234 19.8466C138.643 19.5227 138.955 19.071 139.171 18.4915C139.393 17.9119 139.504 17.233 139.504 16.4545C139.504 15.6761 139.396 15 139.18 14.4261C138.964 13.8523 138.651 13.4091 138.242 13.0966C137.833 12.7841 137.336 12.6278 136.751 12.6278C136.154 12.6278 135.651 12.7898 135.242 13.1136C134.833 13.4375 134.524 13.8864 134.313 14.4602C134.103 15.0341 133.998 15.6989 133.998 16.4545C133.998 17.2159 134.103 17.8892 134.313 18.4744C134.529 19.054 134.839 19.5085 135.242 19.8381C135.651 20.1619 136.154 20.3239 136.751 20.3239ZM145.554 23V9.90909H149.185V23H145.554ZM147.378 8.22159C146.838 8.22159 146.375 8.04261 145.989 7.68466C145.608 7.32102 145.418 6.88636 145.418 6.38068C145.418 5.88068 145.608 5.4517 145.989 5.09375C146.375 4.73011 146.838 4.54829 147.378 4.54829C147.918 4.54829 148.378 4.73011 148.759 5.09375C149.145 5.4517 149.338 5.88068 149.338 6.38068C149.338 6.88636 149.145 7.32102 148.759 7.68466C148.378 8.04261 147.918 8.22159 147.378 8.22159ZM157.528 23.2557C156.204 23.2557 155.059 22.9744 154.093 22.4119C153.133 21.8437 152.392 21.054 151.869 20.0426C151.346 19.0256 151.085 17.8466 151.085 16.5057C151.085 15.1534 151.346 13.9716 151.869 12.9602C152.392 11.9432 153.133 11.1534 154.093 10.5909C155.059 10.0227 156.204 9.73864 157.528 9.73864C158.852 9.73864 159.994 10.0227 160.954 10.5909C161.92 11.1534 162.664 11.9432 163.187 12.9602C163.71 13.9716 163.971 15.1534 163.971 16.5057C163.971 17.8466 163.71 19.0256 163.187 20.0426C162.664 21.054 161.92 21.8437 160.954 22.4119C159.994 22.9744 158.852 23.2557 157.528 23.2557ZM157.545 20.4432C158.147 20.4432 158.65 20.2727 159.054 19.9318C159.457 19.5852 159.761 19.1136 159.966 18.517C160.176 17.9205 160.281 17.2415 160.281 16.4801C160.281 15.7188 160.176 15.0398 159.966 14.4432C159.761 13.8466 159.457 13.375 159.054 13.0284C158.65 12.6818 158.147 12.5085 157.545 12.5085C156.937 12.5085 156.426 12.6818 156.011 13.0284C155.602 13.375 155.292 13.8466 155.082 14.4432C154.877 15.0398 154.775 15.7188 154.775 16.4801C154.775 17.2415 154.877 17.9205 155.082 18.517C155.292 19.1136 155.602 19.5852 156.011 19.9318C156.426 20.2727 156.937 20.4432 157.545 20.4432Z" fill="#0A0A0A"/>
</svg>
